HIERARCHY
ROOT Hips
{
  OFFSET 0.000000 95.000000 0.000000
  CHANNELS 6 Xposition Yposition Zposition Zrotation Xrotation Yrotation
  JOINT Spine
  {
    OFFSET 0.000000 10.000000 0.000000
    CHANNELS 3 Zrotation Xrotation Yrotation
    JOINT Spine1
    {
      OFFSET 0.000000 12.000000 0.000000
      CHANNELS 3 Zrotation Xrotation Yrotation
      JOINT Spine2
      {
        OFFSET 0.000000 12.000000 0.000000
        CHANNELS 3 Zrotation Xrotation Yrotation
        JOINT Neck
        {
          OFFSET 0.000000 10.000000 0.000000
          CHANNELS 3 Zrotation Xrotation Yrotation
          JOINT Head
          {
            OFFSET 0.000000 8.000000 0.000000
            CHANNELS 3 Zrotation Xrotation Yrotation
            End Site
            {
              OFFSET 0.000000 10.000000 0.000000
            }
          }
        }
        JOINT LeftShoulder
        {
          OFFSET 6.000000 8.000000 0.000000
          CHANNELS 3 Zrotation Xrotation Yrotation
          JOINT LeftArm
          {
            OFFSET 12.000000 0.000000 0.000000
            CHANNELS 3 Zrotation Xrotation Yrotation
            JOINT LeftForeArm
            {
              OFFSET 24.000000 0.000000 0.000000
              CHANNELS 3 Zrotation Xrotation Yrotation
              JOINT LeftHand
              {
                OFFSET 22.000000 0.000000 0.000000
                CHANNELS 3 Zrotation Xrotation Yrotation
                JOINT LeftHandThumb1
                {
                  OFFSET 1.800000 -1.400000 0.500000
                  CHANNELS 3 Zrotation Xrotation Yrotation
                  JOINT LeftHandThumb2
                  {
                    OFFSET 2.400000 0.000000 0.000000
                    CHANNELS 3 Zrotation Xrotation Yrotation
                    JOINT LeftHandThumb3
                    {
                      OFFSET 1.900000 0.000000 0.000000
                      CHANNELS 3 Zrotation Xrotation Yrotation
                      End Site
                      {
                        OFFSET 1.600000 0.000000 0.000000
                      }
                    }
                  }
                }
                JOINT LeftHandIndex1
                {
                  OFFSET 6.600000 1.200000 0.300000
                  CHANNELS 3 Zrotation Xrotation Yrotation
                  JOINT LeftHandIndex2
                  {
                    OFFSET 2.000000 0.000000 0.000000
                    CHANNELS 3 Zrotation Xrotation Yrotation
                    JOINT LeftHandIndex3
                    {
                      OFFSET 1.200000 0.000000 0.000000
                      CHANNELS 3 Zrotation Xrotation Yrotation
                      End Site
                      {
                        OFFSET 1.000000 0.000000 0.000000
                      }
                    }
                  }
                }
                JOINT LeftHandMiddle1
                {
                  OFFSET 7.200000 0.000000 0.300000
                  CHANNELS 3 Zrotation Xrotation Yrotation
                  JOINT LeftHandMiddle2
                  {
                    OFFSET 3.000000 0.000000 0.000000
                    CHANNELS 3 Zrotation Xrotation Yrotation
                    JOINT LeftHandMiddle3
                    {
                      OFFSET 2.000000 0.000000 0.000000
                      CHANNELS 3 Zrotation Xrotation Yrotation
                      End Site
                      {
                        OFFSET 1.600000 0.000000 0.000000
                      }
                    }
                  }
                }
                JOINT LeftHandRing1
                {
                  OFFSET 7.100000 -1.000000 0.400000
                  CHANNELS 3 Zrotation Xrotation Yrotation
                  JOINT LeftHandRing2
                  {
                    OFFSET 2.600000 0.000000 0.000000
                    CHANNELS 3 Zrotation Xrotation Yrotation
                    JOINT LeftHandRing3
                    {
                      OFFSET 1.600000 0.000000 0.000000
                      CHANNELS 3 Zrotation Xrotation Yrotation
                      End Site
                      {
                        OFFSET 1.300000 0.000000 0.000000
                      }
                    }
                  }
                }
                JOINT LeftHandPinky1
                {
                  OFFSET 6.500000 -2.000000 0.500000
                  CHANNELS 3 Zrotation Xrotation Yrotation
                  JOINT LeftHandPinky2
                  {
                    OFFSET 1.900000 0.000000 0.000000
                    CHANNELS 3 Zrotation Xrotation Yrotation
                    JOINT LeftHandPinky3
                    {
                      OFFSET 1.400000 0.000000 0.000000
                      CHANNELS 3 Zrotation Xrotation Yrotation
                      End Site
                      {
                        OFFSET 1.300000 0.000000 0.000000
                      }
                    }
                  }
                }
              }
            }
          }
        }
        JOINT RightShoulder
        {
          OFFSET -6.000000 8.000000 0.000000
          CHANNELS 3 Zrotation Xrotation Yrotation
          JOINT RightArm
          {
            OFFSET -12.000000 0.000000 0.000000
            CHANNELS 3 Zrotation Xrotation Yrotation
            JOINT RightForeArm
            {
              OFFSET -24.000000 0.000000 0.000000
              CHANNELS 3 Zrotation Xrotation Yrotation
              JOINT RightHand
              {
                OFFSET -22.000000 0.000000 0.000000
                CHANNELS 3 Zrotation Xrotation Yrotation
                JOINT RightHandThumb1
                {
                  OFFSET -1.800000 -1.400000 0.500000
                  CHANNELS 3 Zrotation Xrotation Yrotation
                  JOINT RightHandThumb2
                  {
                    OFFSET -2.400000 0.000000 0.000000
                    CHANNELS 3 Zrotation Xrotation Yrotation
                    JOINT RightHandThumb3
                    {
                      OFFSET -1.900000 0.000000 0.000000
                      CHANNELS 3 Zrotation Xrotation Yrotation
                      End Site
                      {
                        OFFSET -1.600000 0.000000 0.000000
                      }
                    }
                  }
                }
                JOINT RightHandIndex1
                {
                  OFFSET -6.600000 1.200000 0.300000
                  CHANNELS 3 Zrotation Xrotation Yrotation
                  JOINT RightHandIndex2
                  {
                    OFFSET -2.000000 0.000000 0.000000
                    CHANNELS 3 Zrotation Xrotation Yrotation
                    JOINT RightHandIndex3
                    {
                      OFFSET -1.200000 0.000000 0.000000
                      CHANNELS 3 Zrotation Xrotation Yrotation
                      End Site
                      {
                        OFFSET -1.000000 0.000000 0.000000
                      }
                    }
                  }
                }
                JOINT RightHandMiddle1
                {
                  OFFSET -7.200000 0.000000 0.300000
                  CHANNELS 3 Zrotation Xrotation Yrotation
                  JOINT RightHandMiddle2
                  {
                    OFFSET -3.000000 0.000000 0.000000
                    CHANNELS 3 Zrotation Xrotation Yrotation
                    JOINT RightHandMiddle3
                    {
                      OFFSET -2.000000 0.000000 0.000000
                      CHANNELS 3 Zrotation Xrotation Yrotation
                      End Site
                      {
                        OFFSET -1.600000 0.000000 0.000000
                      }
                    }
                  }
                }
                JOINT RightHandRing1
                {
                  OFFSET -7.100000 -1.000000 0.400000
                  CHANNELS 3 Zrotation Xrotation Yrotation
                  JOINT RightHandRing2
                  {
                    OFFSET -2.600000 0.000000 0.000000
                    CHANNELS 3 Zrotation Xrotation Yrotation
                    JOINT RightHandRing3
                    {
                      OFFSET -1.600000 0.000000 0.000000
                      CHANNELS 3 Zrotation Xrotation Yrotation
                      End Site
                      {
                        OFFSET -1.300000 0.000000 0.000000
                      }
                    }
                  }
                }
                JOINT RightHandPinky1
                {
                  OFFSET -6.500000 -2.000000 0.500000
                  CHANNELS 3 Zrotation Xrotation Yrotation
                  JOINT RightHandPinky2
                  {
                    OFFSET -1.900000 0.000000 0.000000
                    CHANNELS 3 Zrotation Xrotation Yrotation
                    JOINT RightHandPinky3
                    {
                      OFFSET -1.400000 0.000000 0.000000
                      CHANNELS 3 Zrotation Xrotation Yrotation
                      End Site
                      {
                        OFFSET -1.300000 0.000000 0.000000
                      }
                    }
                  }
                }
              }
            }
          }
        }
      }
    }
  }
  JOINT LeftUpLeg
  {
    OFFSET 10.000000 -5.000000 0.000000
    CHANNELS 3 Zrotation Xrotation Yrotation
    JOINT LeftLeg
    {
      OFFSET 0.000000 -42.000000 0.000000
      CHANNELS 3 Zrotation Xrotation Yrotation
      JOINT LeftFoot
      {
        OFFSET 0.000000 -42.000000 4.000000
        CHANNELS 3 Zrotation Xrotation Yrotation
        End Site
        {
          OFFSET 0.000000 0.000000 12.000000
        }
      }
    }
  }
  JOINT RightUpLeg
  {
    OFFSET -10.000000 -5.000000 0.000000
    CHANNELS 3 Zrotation Xrotation Yrotation
    JOINT RightLeg
    {
      OFFSET 0.000000 -42.000000 0.000000
      CHANNELS 3 Zrotation Xrotation Yrotation
      JOINT RightFoot
      {
        OFFSET 0.000000 -42.000000 4.000000
        CHANNELS 3 Zrotation Xrotation Yrotation
        End Site
        {
          OFFSET 0.000000 0.000000 12.000000
        }
      }
    }
  }
}
MOTION
Frames: 7
Frame Time: 0.033333
0.0000 95.0000 0.0000 0.0000 0.0000 0.0000 0.0000 0.0000 0.0000 0.0000 0.0000 0.0000 0.0000 0.0000 0.0000 0.0000 0.0000 0.0000 0.0000 0.0000 0.0000 0.0000 0.0000 0.0000 -79.1928 0.8238 0.9959 -7.6319 -5.1656 7.3022 -170.2691 -9.6487 167.6211 54.0963 -10.3208 7.3994 5.0476 0.0000 0.0000 12.1873 0.0000 0.0000 -3.4847 -0.3203 3.1701 138.9781 0.0000 0.0000 34.8770 0.0000 0.0000 8.4367 -0.2584 -1.2689 169.2920 0.0000 0.0000 9.0363 0.0000 0.0000 18.3907 -0.9616 -2.8623 148.8037 0.0000 0.0000 22.6259 0.0000 0.0000 28.4984 -2.2680 -3.9637 138.5242 0.0000 0.0000 23.2188 0.0000 0.0000 0.0000 0.0000 0.0000 82.6955 -5.4090 6.1453 -2.2868 7.9067 8.2848 47.6874 67.2506 -172.0565 -48.7023 -8.9206 -7.6364 14.1957 0.0000 0.0000 14.4747 0.0000 0.0000 -0.2983 -3.3800 -17.9700 8.4781 0.0000 0.0000 4.7921 0.0000 0.0000 45.5427 -13.9303 37.2252 87.4500 0.0000 0.0000 53.7118 0.0000 0.0000 41.9020 -19.9791 40.2364 107.5316 0.0000 0.0000 52.0482 0.0000 0.0000 34.8363 -27.4447 44.2070 93.4016 0.0000 0.0000 61.8365 0.0000 0.0000 0.0000 0.0000 0.0000 0.0000 0.0000 0.0000 0.0000 0.0000 0.0000 0.0000 0.0000 0.0000 0.0000 0.0000 0.0000 0.0000 0.0000 0.0000
0.0000 95.0000 0.0000 0.0000 0.0000 0.0000 0.0000 0.0000 0.0000 0.0000 0.0000 0.0000 0.0000 0.0000 0.0000 0.0000 0.0000 0.0000 0.0000 0.0000 0.0000 0.0000 0.0000 0.0000 -79.6011 0.8115 0.9740 -7.5905 -5.0476 7.0775 -170.6924 -9.5209 167.8688 54.0963 -10.3208 7.3994 5.0476 0.0000 0.0000 12.1873 0.0000 0.0000 -3.4847 -0.3203 3.1701 138.9781 0.0000 0.0000 34.8770 0.0000 0.0000 8.4367 -0.2584 -1.2689 169.2920 0.0000 0.0000 9.0363 0.0000 0.0000 18.3907 -0.9616 -2.8623 148.8037 0.0000 0.0000 22.6259 0.0000 0.0000 28.4984 -2.2680 -3.9637 138.5242 0.0000 0.0000 23.2188 0.0000 0.0000 0.0000 0.0000 0.0000 82.7084 -5.4622 6.2043 -2.2768 7.4278 7.7691 47.7799 66.8288 -171.5066 -48.7023 -8.9206 -7.6364 14.1957 0.0000 0.0000 14.4747 0.0000 0.0000 -0.2983 -3.3800 -17.9700 8.4781 0.0000 0.0000 4.7921 0.0000 0.0000 45.5427 -13.9303 37.2252 87.4500 0.0000 0.0000 53.7118 0.0000 0.0000 41.9020 -19.9791 40.2364 107.5316 0.0000 0.0000 52.0482 0.0000 0.0000 34.8363 -27.4447 44.2070 93.4016 0.0000 0.0000 61.8365 0.0000 0.0000 0.0000 0.0000 0.0000 0.0000 0.0000 0.0000 0.0000 0.0000 0.0000 0.0000 0.0000 0.0000 0.0000 0.0000 0.0000 0.0000 0.0000 0.0000
0.0000 95.0000 0.0000 0.0000 0.0000 0.0000 0.0000 0.0000 0.0000 0.0000 0.0000 0.0000 0.0000 0.0000 0.0000 0.0000 0.0000 0.0000 0.0000 0.0000 0.0000 0.0000 0.0000 0.0000 -79.7829 1.1802 1.4119 -7.3888 -5.2811 7.4008 -170.5084 -10.1655 167.1362 54.0963 -10.3208 7.3994 5.0476 0.0000 0.0000 12.1873 0.0000 0.0000 -3.4847 -0.3203 3.1701 138.9781 0.0000 0.0000 34.8770 0.0000 0.0000 8.4367 -0.2584 -1.2689 169.2920 0.0000 0.0000 9.0363 0.0000 0.0000 18.3907 -0.9616 -2.8623 148.8037 0.0000 0.0000 22.6259 0.0000 0.0000 28.4984 -2.2680 -3.9637 138.5242 0.0000 0.0000 23.2188 0.0000 0.0000 0.0000 0.0000 0.0000 82.7298 -5.4394 6.1760 -1.9575 6.8608 7.2345 48.5528 66.1986 -170.2216 -48.7023 -8.9206 -7.6364 14.1957 0.0000 0.0000 14.4747 0.0000 0.0000 -0.2983 -3.3800 -17.9700 8.4781 0.0000 0.0000 4.7921 0.0000 0.0000 45.5427 -13.9303 37.2252 87.4500 0.0000 0.0000 53.7118 0.0000 0.0000 41.9020 -19.9791 40.2364 107.5316 0.0000 0.0000 52.0482 0.0000 0.0000 34.8363 -27.4447 44.2070 93.4016 0.0000 0.0000 61.8365 0.0000 0.0000 0.0000 0.0000 0.0000 0.0000 0.0000 0.0000 0.0000 0.0000 0.0000 0.0000 0.0000 0.0000 0.0000 0.0000 0.0000 0.0000 0.0000 0.0000
0.0000 95.0000 0.0000 0.0000 0.0000 0.0000 0.0000 0.0000 0.0000 0.0000 0.0000 0.0000 0.0000 0.0000 0.0000 0.0000 0.0000 0.0000 0.0000 0.0000 0.0000 0.0000 0.0000 0.0000 -79.8576 0.7009 0.8374 -7.4851 -5.7216 7.9289 -170.6199 -10.1392 167.1947 54.0963 -10.3208 7.3994 5.0476 0.0000 0.0000 12.1873 0.0000 0.0000 -3.4847 -0.3203 3.1701 138.9781 0.0000 0.0000 34.8770 0.0000 0.0000 8.4367 -0.2584 -1.2689 169.2920 0.0000 0.0000 9.0363 0.0000 0.0000 18.3907 -0.9616 -2.8623 148.8037 0.0000 0.0000 22.6259 0.0000 0.0000 28.4984 -2.2680 -3.9637 138.5242 0.0000 0.0000 23.2188 0.0000 0.0000 0.0000 0.0000 0.0000 82.5736 -5.0892 5.7945 -1.9832 7.0910 7.5182 47.9316 66.1702 -170.6478 -48.7023 -8.9206 -7.6364 14.1957 0.0000 0.0000 14.4747 0.0000 0.0000 -0.2983 -3.3800 -17.9700 8.4781 0.0000 0.0000 4.7921 0.0000 0.0000 45.5427 -13.9303 37.2252 87.4500 0.0000 0.0000 53.7118 0.0000 0.0000 41.9020 -19.9791 40.2364 107.5316 0.0000 0.0000 52.0482 0.0000 0.0000 34.8363 -27.4447 44.2070 93.4016 0.0000 0.0000 61.8365 0.0000 0.0000 0.0000 0.0000 0.0000 0.0000 0.0000 0.0000 0.0000 0.0000 0.0000 0.0000 0.0000 0.0000 0.0000 0.0000 0.0000 0.0000 0.0000 0.0000
0.0000 95.0000 0.0000 0.0000 0.0000 0.0000 0.0000 0.0000 0.0000 0.0000 0.0000 0.0000 0.0000 0.0000 0.0000 0.0000 0.0000 0.0000 0.0000 0.0000 0.0000 0.0000 0.0000 0.0000 -79.4366 0.6176 0.7434 -7.8566 -5.1170 7.2008 -170.8030 -9.4258 167.9982 54.0963 -10.3208 7.3994 5.0476 0.0000 0.0000 12.1873 0.0000 0.0000 -3.4847 -0.3203 3.1701 138.9781 0.0000 0.0000 34.8770 0.0000 0.0000 8.4367 -0.2584 -1.2689 169.2920 0.0000 0.0000 9.0363 0.0000 0.0000 18.3907 -0.9616 -2.8623 148.8037 0.0000 0.0000 22.6259 0.0000 0.0000 28.4984 -2.2680 -3.9637 138.5242 0.0000 0.0000 23.2188 0.0000 0.0000 0.0000 0.0000 0.0000 81.9037 -4.0186 4.6301 -1.1029 7.6309 8.4623 47.8619 65.8308 -170.3164 -48.7023 -8.9206 -7.6364 14.1957 0.0000 0.0000 14.4747 0.0000 0.0000 -0.2983 -3.3800 -17.9700 8.4781 0.0000 0.0000 4.7921 0.0000 0.0000 45.5427 -13.9303 37.2252 87.4500 0.0000 0.0000 53.7118 0.0000 0.0000 41.9020 -19.9791 40.2364 107.5316 0.0000 0.0000 52.0482 0.0000 0.0000 34.8363 -27.4447 44.2070 93.4016 0.0000 0.0000 61.8365 0.0000 0.0000 0.0000 0.0000 0.0000 0.0000 0.0000 0.0000 0.0000 0.0000 0.0000 0.0000 0.0000 0.0000 0.0000 0.0000 0.0000 0.0000 0.0000 0.0000
0.0000 95.0000 0.0000 0.0000 0.0000 0.0000 0.0000 0.0000 0.0000 0.0000 0.0000 0.0000 0.0000 0.0000 0.0000 0.0000 0.0000 0.0000 0.0000 0.0000 0.0000 0.0000 0.0000 0.0000 -77.6673 1.8611 2.3119 -7.5991 -3.4224 5.2114 -169.0771 -8.7613 168.2660 54.0963 -10.3208 7.3994 5.0476 0.0000 0.0000 12.1873 0.0000 0.0000 -3.4847 -0.3203 3.1701 138.9781 0.0000 0.0000 34.8770 0.0000 0.0000 8.4367 -0.2584 -1.2689 169.2920 0.0000 0.0000 9.0363 0.0000 0.0000 18.3907 -0.9616 -2.8623 148.8037 0.0000 0.0000 22.6259 0.0000 0.0000 28.4984 -2.2680 -3.9637 138.5242 0.0000 0.0000 23.2188 0.0000 0.0000 0.0000 0.0000 0.0000 78.9473 -7.6558 9.2894 -0.3570 16.8211 19.4924 30.0694 78.8324 -202.3899 -48.7023 -8.9206 -7.6364 14.1957 0.0000 0.0000 14.4747 0.0000 0.0000 -0.2983 -3.3800 -17.9700 8.4781 0.0000 0.0000 4.7921 0.0000 0.0000 45.5427 -13.9303 37.2252 87.4500 0.0000 0.0000 53.7118 0.0000 0.0000 41.9020 -19.9791 40.2364 107.5316 0.0000 0.0000 52.0482 0.0000 0.0000 34.8363 -27.4447 44.2070 93.4016 0.0000 0.0000 61.8365 0.0000 0.0000 0.0000 0.0000 0.0000 0.0000 0.0000 0.0000 0.0000 0.0000 0.0000 0.0000 0.0000 0.0000 0.0000 0.0000 0.0000 0.0000 0.0000 0.0000
0.0000 95.0000 0.0000 0.0000 0.0000 0.0000 0.0000 0.0000 0.0000 0.0000 0.0000 0.0000 0.0000 0.0000 0.0000 0.0000 0.0000 0.0000 0.0000 0.0000 0.0000 0.0000 0.0000 0.0000 -75.7446 5.9955 7.7047 -6.4599 -0.6492 1.8947 -166.2083 -9.9854 166.1122 54.0963 -10.3208 7.3994 5.0476 0.0000 0.0000 12.1873 0.0000 0.0000 -3.4847 -0.3203 3.1701 138.9781 0.0000 0.0000 34.8770 0.0000 0.0000 8.4367 -0.2584 -1.2689 169.2920 0.0000 0.0000 9.0363 0.0000 0.0000 18.3907 -0.9616 -2.8623 148.8037 0.0000 0.0000 22.6259 0.0000 0.0000 28.4984 -2.2680 -3.9637 138.5242 0.0000 0.0000 23.2188 0.0000 0.0000 0.0000 0.0000 0.0000 74.4309 -10.4913 13.7859 -2.2395 33.6642 37.9807 -60.8355 67.9954 -311.5018 -48.7023 -8.9206 -7.6364 14.1957 0.0000 0.0000 14.4747 0.0000 0.0000 -0.2983 -3.3800 -17.9700 8.4781 0.0000 0.0000 4.7921 0.0000 0.0000 45.5427 -13.9303 37.2252 87.4500 0.0000 0.0000 53.7118 0.0000 0.0000 41.9020 -19.9791 40.2364 107.5316 0.0000 0.0000 52.0482 0.0000 0.0000 34.8363 -27.4447 44.2070 93.4016 0.0000 0.0000 61.8365 0.0000 0.0000 0.0000 0.0000 0.0000 0.0000 0.0000 0.0000 0.0000 0.0000 0.0000 0.0000 0.0000 0.0000 0.0000 0.0000 0.0000 0.0000 0.0000 0.0000
